{
	"scenes":[{
		"nodes":[0]
	}],
	"asset":{
		"version":"2.0",
		"generator":"Created using the official Cinema 4D glTF Exporter 1.000x284978"
	},
	"nodes":[{
		"name":"VINES",
		"rotation":[0.0,
		0.0,
		0.0,
		-1.0],
		"translation":[0.0,
		0.0,
		0.0],
		"scale":[1.0,
		1.0,
		1.0],
		"children":[1,
		8]
	},
	{
		"name":"Vine2",
		"rotation":[0.0,
		0.0,
		0.0,
		-1.0],
		"translation":[0.0,
		0.0,
		0.0],
		"scale":[1.0,
		1.0,
		1.0],
		"children":[2]
	},
	{
		"name":"Vine+Twist",
		"rotation":[0.0,
		0.0,
		0.0,
		-1.0],
		"translation":[0.0,
		0.0,
		0.0],
		"scale":[1.0,
		1.0,
		1.0],
		"children":[3]
	},
	{
		"name":"克隆",
		"rotation":[-0.7071067690849304,
		0.0,
		0.0,
		-0.7071067690849304],
		"translation":[0.0,
		0.0,
		0.0],
		"scale":[1.0,
		1.0,
		1.0],
		"children":[4,
		5,
		6,
		7]
	},
	{
		"name":"Cylinder.2 0",
		"rotation":[0.6893121004104614,
		-0.1576351374387741,
		-0.1576351374387741,
		0.6893121004104614],
		"translation":[0.03911753371357918,
		0.08105441927909851,
		0.0],
		"scale":[1.0,
		1.0,
		1.0],
		"mesh":0
	},
	{
		"name":"Cylinder.1 1",
		"rotation":[0.4004150331020355,
		-0.5828102827072144,
		-0.5828102827072144,
		0.4004150331020355],
		"translation":[0.0840117558836937,
		-0.03228040412068367,
		0.0],
		"scale":[1.0,
		1.0,
		1.0],
		"mesh":1
	},
	{
		"name":"圆柱体 2",
		"rotation":[0.0608241893351078,
		0.7044859528541565,
		0.7044859528541565,
		0.0608241893351078],
		"translation":[-0.015425922349095345,
		-0.08866815268993378,
		0.0],
		"scale":[1.0,
		1.0,
		1.0],
		"mesh":2
	},
	{
		"name":"Cylinder.2 3",
		"rotation":[0.4769974648952484,
		0.5219898819923401,
		0.5219898819923401,
		0.4769974648952484],
		"translation":[-0.08963562548160553,
		-0.008090433664619923,
		0.0],
		"scale":[1.0,
		1.0,
		1.0],
		"mesh":3
	},
	{
		"name":"Vine 1",
		"rotation":[0.0,
		0.0,
		0.0,
		-1.0],
		"translation":[0.0,
		0.0,
		0.0],
		"scale":[1.0,
		1.0,
		1.0],
		"children":[9]
	},
	{
		"name":"Vine+Twist",
		"rotation":[0.0,
		0.0,
		0.0,
		-1.0],
		"translation":[0.0,
		0.0,
		0.0],
		"scale":[1.0,
		1.0,
		1.0],
		"children":[10]
	},
	{
		"name":"克隆",
		"rotation":[-0.7071067690849304,
		0.0,
		0.0,
		-0.7071067690849304],
		"translation":[0.0,
		0.0,
		0.0],
		"scale":[1.0,
		1.0,
		1.0],
		"children":[11,
		12,
		13,
		14]
	},
	{
		"name":"Cylinder_SMALL 0",
		"rotation":[0.6893121004104614,
		-0.1576351374387741,
		-0.1576351374387741,
		0.6893121004104614],
		"translation":[0.03911753371357918,
		0.08105441927909851,
		0.0],
		"scale":[1.0,
		1.0,
		1.0],
		"mesh":4
	},
	{
		"name":"Cylinder_MEDIUM 1",
		"rotation":[0.4004150331020355,
		-0.5828102827072144,
		-0.5828102827072144,
		0.4004150331020355],
		"translation":[0.0840117558836937,
		-0.03228040412068367,
		0.0],
		"scale":[1.0,
		1.0,
		1.0],
		"mesh":5
	},
	{
		"name":"Cylinder_BIG 2",
		"rotation":[0.0608241893351078,
		0.7044859528541565,
		0.7044859528541565,
		0.0608241893351078],
		"translation":[-0.015425922349095345,
		-0.08866815268993378,
		0.0],
		"scale":[1.0,
		1.0,
		1.0],
		"mesh":6
	},
	{
		"name":"Cylinder_SMALL 3",
		"rotation":[0.4769974648952484,
		0.5219898819923401,
		0.5219898819923401,
		0.4769974648952484],
		"translation":[-0.08963562548160553,
		-0.008090433664619923,
		0.0],
		"scale":[1.0,
		1.0,
		1.0],
		"mesh":7
	}],
	"meshes":[{
		"name":"Cylinder.2 0",
		"primitives":[{
			"attributes":{
				"POSITION":1,
				"NORMAL":2,
				"TEXCOORD_0":3
			},
			"indices":0,
			"material":0
		}]
	},
	{
		"name":"Cylinder.1 1",
		"primitives":[{
			"attributes":{
				"POSITION":5,
				"NORMAL":6,
				"TEXCOORD_0":7
			},
			"indices":4,
			"material":0
		}]
	},
	{
		"name":"圆柱体 2",
		"primitives":[{
			"attributes":{
				"POSITION":9,
				"NORMAL":10,
				"TEXCOORD_0":11
			},
			"indices":8,
			"material":0
		}]
	},
	{
		"name":"Cylinder.2 3",
		"primitives":[{
			"attributes":{
				"POSITION":13,
				"NORMAL":14,
				"TEXCOORD_0":15
			},
			"indices":12,
			"material":0
		}]
	},
	{
		"name":"Cylinder_SMALL 0",
		"primitives":[{
			"attributes":{
				"POSITION":17,
				"NORMAL":18,
				"TEXCOORD_0":19
			},
			"indices":16,
			"material":0
		}]
	},
	{
		"name":"Cylinder_MEDIUM 1",
		"primitives":[{
			"attributes":{
				"POSITION":21,
				"NORMAL":22,
				"TEXCOORD_0":23
			},
			"indices":20,
			"material":0
		}]
	},
	{
		"name":"Cylinder_BIG 2",
		"primitives":[{
			"attributes":{
				"POSITION":25,
				"NORMAL":26,
				"TEXCOORD_0":27
			},
			"indices":24,
			"material":0
		}]
	},
	{
		"name":"Cylinder_SMALL 3",
		"primitives":[{
			"attributes":{
				"POSITION":29,
				"NORMAL":30,
				"TEXCOORD_0":31
			},
			"indices":28,
			"material":0
		}]
	}],
	"accessors":[{
		"bufferView":0,
		"type":"SCALAR",
		"componentType":5123,
		"max":[6968],
		"count":39732,
		"byteOffset":0,
		"min":[0]
	},
	{
		"bufferView":1,
		"type":"VEC3",
		"componentType":5126,
		"max":[1.5507423877716065,
		2.3130199909210207,
		1.4341027736663819],
		"count":6969,
		"byteOffset":0,
		"min":[-1.5091217756271363,
		-2.901184320449829,
		-0.317633718252182]
	},
	{
		"bufferView":1,
		"type":"VEC3",
		"componentType":5126,
		"max":[0.9999681711196899,
		0.9993729591369629,
		0.9999778270721436],
		"count":6969,
		"byteOffset":12,
		"min":[-0.9999361038208008,
		-0.9993000626564026,
		-0.9999762177467346]
	},
	{
		"bufferView":1,
		"type":"VEC2",
		"componentType":5126,
		"max":[1.0,
		1.0],
		"count":6969,
		"byteOffset":24,
		"min":[0.0,
		0.0]
	},
	{
		"bufferView":2,
		"type":"SCALAR",
		"componentType":5123,
		"max":[6968],
		"count":39732,
		"byteOffset":0,
		"min":[0]
	},
	{
		"bufferView":3,
		"type":"VEC3",
		"componentType":5126,
		"max":[1.2075762748718262,
		2.281562328338623,
		1.5761901140213013],
		"count":6969,
		"byteOffset":0,
		"min":[-0.3090228736400604,
		-2.905099630355835,
		-1.472472906112671]
	},
	{
		"bufferView":3,
		"type":"VEC3",
		"componentType":5126,
		"max":[0.9999784231185913,
		0.9996494054794312,
		0.9985873103141785],
		"count":6969,
		"byteOffset":12,
		"min":[-0.9999808073043823,
		-0.999711811542511,
		-0.9991581439971924]
	},
	{
		"bufferView":3,
		"type":"VEC2",
		"componentType":5126,
		"max":[1.0,
		1.0],
		"count":6969,
		"byteOffset":24,
		"min":[0.0,
		0.0]
	},
	{
		"bufferView":4,
		"type":"SCALAR",
		"componentType":5123,
		"max":[6982],
		"count":39732,
		"byteOffset":0,
		"min":[0]
	},
	{
		"bufferView":5,
		"type":"VEC3",
		"componentType":5126,
		"max":[1.54058039188385,
		2.319823741912842,
		0.2903705835342407],
		"count":6983,
		"byteOffset":0,
		"min":[-1.6461111307144166,
		-2.9068312644958498,
		-1.0076441764831544]
	},
	{
		"bufferView":5,
		"type":"VEC3",
		"componentType":5126,
		"max":[0.9999157190322876,
		0.9992684721946716,
		0.99995356798172],
		"count":6983,
		"byteOffset":12,
		"min":[-0.9998494386672974,
		-0.9989970922470093,
		-0.9999354481697083]
	},
	{
		"bufferView":5,
		"type":"VEC2",
		"componentType":5126,
		"max":[1.0,
		1.0],
		"count":6983,
		"byteOffset":24,
		"min":[0.0,
		0.0]
	},
	{
		"bufferView":6,
		"type":"SCALAR",
		"componentType":5123,
		"max":[6968],
		"count":39732,
		"byteOffset":0,
		"min":[0]
	},
	{
		"bufferView":7,
		"type":"VEC3",
		"componentType":5126,
		"max":[0.3517798185348511,
		2.3392162322998049,
		1.6771281957626343],
		"count":6969,
		"byteOffset":0,
		"min":[-1.022475004196167,
		-2.902376413345337,
		-1.4847257137298585]
	},
	{
		"bufferView":7,
		"type":"VEC3",
		"componentType":5126,
		"max":[0.9996899366378784,
		0.9995289444923401,
		0.9992586970329285],
		"count":6969,
		"byteOffset":12,
		"min":[-0.9996283650398254,
		-0.9994145035743713,
		-0.99922776222229]
	},
	{
		"bufferView":7,
		"type":"VEC2",
		"componentType":5126,
		"max":[1.0,
		1.0],
		"count":6969,
		"byteOffset":24,
		"min":[0.0,
		0.0]
	},
	{
		"bufferView":8,
		"type":"SCALAR",
		"componentType":5123,
		"max":[6980],
		"count":39732,
		"byteOffset":0,
		"min":[0]
	},
	{
		"bufferView":9,
		"type":"VEC3",
		"componentType":5126,
		"max":[1.3388113975524903,
		2.655557632446289,
		1.2096531391143799],
		"count":6981,
		"byteOffset":0,
		"min":[-1.2988370656967164,
		-2.903186082839966,
		-0.8319277167320252]
	},
	{
		"bufferView":9,
		"type":"VEC3",
		"componentType":5126,
		"max":[0.9999030232429504,
		0.9994902610778809,
		0.9997353553771973],
		"count":6981,
		"byteOffset":12,
		"min":[-0.9999274015426636,
		-0.9999441504478455,
		-0.999760091304779]
	},
	{
		"bufferView":9,
		"type":"VEC2",
		"componentType":5126,
		"max":[1.0,
		1.0],
		"count":6981,
		"byteOffset":24,
		"min":[0.0,
		0.0]
	},
	{
		"bufferView":10,
		"type":"SCALAR",
		"componentType":5123,
		"max":[6983],
		"count":39732,
		"byteOffset":0,
		"min":[0]
	},
	{
		"bufferView":11,
		"type":"VEC3",
		"componentType":5126,
		"max":[1.1188932657241822,
		2.6186952590942385,
		1.3618093729019166],
		"count":6984,
		"byteOffset":0,
		"min":[-0.8613777756690979,
		-2.9009687900543215,
		-1.1758204698562623]
	},
	{
		"bufferView":11,
		"type":"VEC3",
		"componentType":5126,
		"max":[0.9999293684959412,
		0.9999900460243225,
		0.9976574778556824],
		"count":6984,
		"byteOffset":12,
		"min":[-0.9999602437019348,
		-0.9999317526817322,
		-0.9986016750335693]
	},
	{
		"bufferView":11,
		"type":"VEC2",
		"componentType":5126,
		"max":[1.0,
		1.0],
		"count":6984,
		"byteOffset":24,
		"min":[0.0,
		0.0]
	},
	{
		"bufferView":12,
		"type":"SCALAR",
		"componentType":5123,
		"max":[6990],
		"count":39732,
		"byteOffset":0,
		"min":[0]
	},
	{
		"bufferView":13,
		"type":"VEC3",
		"componentType":5126,
		"max":[1.2949434518814088,
		2.5904316902160646,
		0.7694481015205383],
		"count":6991,
		"byteOffset":0,
		"min":[-1.3220491409301758,
		-2.9036030769348146,
		-0.9032730460166931]
	},
	{
		"bufferView":13,
		"type":"VEC3",
		"componentType":5126,
		"max":[0.9998277425765991,
		0.9998720288276672,
		0.999363362789154],
		"count":6991,
		"byteOffset":12,
		"min":[-0.9998568892478943,
		-0.9998809695243836,
		-0.9996619820594788]
	},
	{
		"bufferView":13,
		"type":"VEC2",
		"componentType":5126,
		"max":[1.0,
		1.0],
		"count":6991,
		"byteOffset":24,
		"min":[0.0,
		0.0]
	},
	{
		"bufferView":14,
		"type":"SCALAR",
		"componentType":5123,
		"max":[6985],
		"count":39732,
		"byteOffset":0,
		"min":[0]
	},
	{
		"bufferView":15,
		"type":"VEC3",
		"componentType":5126,
		"max":[0.4404500424861908,
		2.5965890884399416,
		1.430451512336731],
		"count":6986,
		"byteOffset":0,
		"min":[-0.803811252117157,
		-2.9054360389709474,
		-1.3044549226760865]
	},
	{
		"bufferView":15,
		"type":"VEC3",
		"componentType":5126,
		"max":[0.9999911189079285,
		0.9989165663719177,
		0.9990708827972412],
		"count":6986,
		"byteOffset":12,
		"min":[-0.9999921321868897,
		-0.9990249276161194,
		-0.999029815196991]
	},
	{
		"bufferView":15,
		"type":"VEC2",
		"componentType":5126,
		"max":[1.0,
		1.0],
		"count":6986,
		"byteOffset":24,
		"min":[0.0,
		0.0]
	}],
	"bufferViews":[{
		"buffer":0,
		"byteOffset":0,
		"byteLength":79464,
		"target":34963
	},
	{
		"buffer":0,
		"byteOffset":79464,
		"byteLength":223008,
		"target":34962,
		"byteStride":32
	},
	{
		"buffer":1,
		"byteOffset":0,
		"byteLength":79464,
		"target":34963
	},
	{
		"buffer":1,
		"byteOffset":79464,
		"byteLength":223008,
		"target":34962,
		"byteStride":32
	},
	{
		"buffer":2,
		"byteOffset":0,
		"byteLength":79464,
		"target":34963
	},
	{
		"buffer":2,
		"byteOffset":79464,
		"byteLength":223456,
		"target":34962,
		"byteStride":32
	},
	{
		"buffer":3,
		"byteOffset":0,
		"byteLength":79464,
		"target":34963
	},
	{
		"buffer":3,
		"byteOffset":79464,
		"byteLength":223008,
		"target":34962,
		"byteStride":32
	},
	{
		"buffer":4,
		"byteOffset":0,
		"byteLength":79464,
		"target":34963
	},
	{
		"buffer":4,
		"byteOffset":79464,
		"byteLength":223392,
		"target":34962,
		"byteStride":32
	},
	{
		"buffer":5,
		"byteOffset":0,
		"byteLength":79464,
		"target":34963
	},
	{
		"buffer":5,
		"byteOffset":79464,
		"byteLength":223488,
		"target":34962,
		"byteStride":32
	},
	{
		"buffer":6,
		"byteOffset":0,
		"byteLength":79464,
		"target":34963
	},
	{
		"buffer":6,
		"byteOffset":79464,
		"byteLength":223712,
		"target":34962,
		"byteStride":32
	},
	{
		"buffer":7,
		"byteOffset":0,
		"byteLength":79464,
		"target":34963
	},
	{
		"buffer":7,
		"byteOffset":79464,
		"byteLength":223552,
		"target":34962,
		"byteStride":32
	}],
	"buffers":[{
		"uri":"data:application/octet-stream;base64,",
		"byteLength":302472
	},
	{
		"uri":"data:application/octet-stream;base64,",
		"byteLength":302472
	},
	{
		"uri":"data:application/octet-stream;base64,",
		"byteLength":302920
	},
	{
		"uri":"data:application/octet-stream;base64,",
		"byteLength":302472
	},
	{
		"uri":"data:application/octet-stream;base64,",
		"byteLength":302856
	},
	{
		"uri":"data:application/octet-stream;base64,",
		"byteLength":302952
	},
	{
		"uri":"data:application/octet-stream;base64,",
		"byteLength":303176
	},
	{
		"uri":"data:application/octet-stream;base64,",
		"byteLength":303016
	}],
	"materials":[{
		"pbrMetallicRoughness":{
			"baseColorFactor":[1.0,
			1.0,
			1.0,
			1.0],
			"metallicFactor":1.0,
			"roughnessFactor":0.0
		},
		"emissiveFactor":[0.0,
		0.0,
		0.0],
		"alphaMode":"BLEND",
		"doubleSided":true,
		"name":"Green_Dirt"
	}]
}