{
	"meshes":[{
		"name":"管道",
		"primitives":[{
			"attributes":{
				"POSITION":1,
				"NORMAL":2,
				"TEXCOORD_0":3
			},
			"indices":0,
			"material":0
		}]
	},
	{
		"name":"扫描.3",
		"primitives":[{
			"attributes":{
				"POSITION":5,
				"NORMAL":6,
				"TEXCOORD_0":7
			},
			"indices":4,
			"material":1
		}]
	},
	{
		"name":"封顶 1",
		"primitives":[{
			"attributes":{
				"POSITION":9,
				"NORMAL":10,
				"TEXCOORD_0":11
			},
			"indices":8,
			"material":1
		}]
	},
	{
		"name":"封顶 2",
		"primitives":[{
			"attributes":{
				"POSITION":13,
				"NORMAL":14,
				"TEXCOORD_0":15
			},
			"indices":12,
			"material":1
		}]
	},
	{
		"name":"扫描.2",
		"primitives":[{
			"attributes":{
				"POSITION":17,
				"NORMAL":18,
				"TEXCOORD_0":19
			},
			"indices":16,
			"material":1
		}]
	},
	{
		"name":"封顶 1",
		"primitives":[{
			"attributes":{
				"POSITION":21,
				"NORMAL":22,
				"TEXCOORD_0":23
			},
			"indices":20,
			"material":1
		}]
	},
	{
		"name":"封顶 2",
		"primitives":[{
			"attributes":{
				"POSITION":25,
				"NORMAL":26,
				"TEXCOORD_0":27
			},
			"indices":24,
			"material":1
		}]
	},
	{
		"name":"扫描.1",
		"primitives":[{
			"attributes":{
				"POSITION":29,
				"NORMAL":30,
				"TEXCOORD_0":31
			},
			"indices":28,
			"material":1
		}]
	},
	{
		"name":"封顶 1",
		"primitives":[{
			"attributes":{
				"POSITION":33,
				"NORMAL":34,
				"TEXCOORD_0":35
			},
			"indices":32,
			"material":1
		}]
	},
	{
		"name":"封顶 2",
		"primitives":[{
			"attributes":{
				"POSITION":37,
				"NORMAL":38,
				"TEXCOORD_0":39
			},
			"indices":36,
			"material":1
		}]
	},
	{
		"name":"扫描",
		"primitives":[{
			"attributes":{
				"POSITION":41,
				"NORMAL":42,
				"TEXCOORD_0":43
			},
			"indices":40,
			"material":1
		}]
	},
	{
		"name":"封顶 1",
		"primitives":[{
			"attributes":{
				"POSITION":45,
				"NORMAL":46,
				"TEXCOORD_0":47
			},
			"indices":44,
			"material":1
		}]
	},
	{
		"name":"封顶 2",
		"primitives":[{
			"attributes":{
				"POSITION":49,
				"NORMAL":50,
				"TEXCOORD_0":51
			},
			"indices":48,
			"material":1
		}]
	}],
	"nodes":[{
		"name":"管道",
		"translation":[0.0,
		80.80999755859375,
		0.0],
		"rotation":[0.0,
		0.0,
		0.0,
		-1.0],
		"scale":[1.0,
		1.0,
		1.0],
		"mesh":0
	},
	{
		"name":"空白.1",
		"translation":[2.743147134780884,
		2.2801828384399416,
		-2.8691980838775636],
		"rotation":[0.0,
		0.0,
		0.0,
		-1.0],
		"scale":[1.0,
		1.0,
		1.0],
		"children":[2,
		5,
		8,
		11]
	},
	{
		"name":"扫描.3",
		"translation":[-9.437942504882813,
		0.0,
		-8.60759449005127],
		"rotation":[0.0,
		0.0,
		0.0,
		-1.0],
		"scale":[1.0,
		1.0,
		1.0],
		"mesh":1,
		"children":[3,
		4]
	},
	{
		"name":"封顶 1",
		"translation":[0.0,
		0.0,
		0.0],
		"rotation":[0.39036834239959719,
		-2.39031672011204e-17,
		-0.9206587672233582,
		5.637409251605275e-17],
		"scale":[1.0,
		1.0,
		1.0],
		"mesh":2
	},
	{
		"name":"封顶 2",
		"translation":[1002.1770629882813,
		0.0,
		-99.0426254272461],
		"rotation":[0.7071067690849304,
		-4.329780301713277e-17,
		-0.7071067690849304,
		4.329780301713277e-17],
		"scale":[1.0,
		1.0,
		1.0],
		"mesh":3
	},
	{
		"name":"扫描.2",
		"translation":[14.924236297607422,
		0.0,
		2.8691980838775636],
		"rotation":[0.0,
		0.0,
		0.0,
		-1.0],
		"scale":[1.0,
		1.0,
		1.0],
		"mesh":4,
		"children":[6,
		7]
	},
	{
		"name":"封顶 1",
		"translation":[498.90765380859377,
		0.0,
		9029.0205078125],
		"rotation":[0.00010875709995161742,
		-6.659451781492564e-21,
		-1.0,
		6.123234262925839e-17],
		"scale":[1.0,
		1.0,
		1.0],
		"mesh":5
	},
	{
		"name":"封顶 2",
		"translation":[503.2694091796875,
		0.0,
		-1056.0206298828126],
		"rotation":[0.00026554818032309413,
		-1.626013648578635e-20,
		-0.9999999403953552,
		6.123233601181349e-17],
		"scale":[1.0,
		1.0,
		1.0],
		"mesh":6
	},
	{
		"name":"扫描.1",
		"translation":[-2.743147134780884,
		0.0,
		2.8691980838775636],
		"rotation":[0.0,
		0.0,
		0.0,
		-1.0],
		"scale":[1.0,
		1.0,
		1.0],
		"mesh":7,
		"children":[9,
		10]
	},
	{
		"name":"封顶 1",
		"translation":[498.90765380859377,
		0.0,
		9029.0205078125],
		"rotation":[0.00010875709995161742,
		-6.659451781492564e-21,
		-1.0,
		6.123234262925839e-17],
		"scale":[1.0,
		1.0,
		1.0],
		"mesh":8
	},
	{
		"name":"封顶 2",
		"translation":[503.2694091796875,
		0.0,
		-1056.0206298828126],
		"rotation":[0.00026554818032309413,
		-1.626013648578635e-20,
		-0.9999999403953552,
		6.123233601181349e-17],
		"scale":[1.0,
		1.0,
		1.0],
		"mesh":9
	},
	{
		"name":"扫描",
		"translation":[-2.743147134780884,
		0.0,
		2.8691980838775636],
		"rotation":[0.0,
		0.0,
		0.0,
		-1.0],
		"scale":[1.0,
		1.0,
		1.0],
		"mesh":10,
		"children":[12,
		13]
	},
	{
		"name":"封顶 1",
		"translation":[0.0,
		0.0,
		0.0],
		"rotation":[0.39036834239959719,
		-2.39031672011204e-17,
		-0.9206587672233582,
		5.637409251605275e-17],
		"scale":[1.0,
		1.0,
		1.0],
		"mesh":11
	},
	{
		"name":"封顶 2",
		"translation":[1002.1770629882813,
		0.0,
		-99.0426254272461],
		"rotation":[0.7071067690849304,
		-4.329780301713277e-17,
		-0.7071067690849304,
		4.329780301713277e-17],
		"scale":[1.0,
		1.0,
		1.0],
		"mesh":12
	}],
	"asset":{
		"version":"2.0",
		"generator":"Created using the official Cinema 4D glTF Exporter 1.000x284978"
	},
	"scenes":[{
		"nodes":[0,
		1]
	}],
	"images":[{
		"uri":"data:image/jpeg;base64,"
	}],
	"accessors":[{
		"bufferView":0,
		"max":[291],
		"type":"SCALAR",
		"count":864,
		"componentType":5123,
		"byteOffset":0,
		"min":[0]
	},
	{
		"bufferView":1,
		"max":[241.57205200195313,
		49.917945861816409,
		49.917945861816409],
		"type":"VEC3",
		"count":292,
		"componentType":5126,
		"byteOffset":0,
		"min":[-241.57205200195313,
		-49.917945861816409,
		-49.917945861816409]
	},
	{
		"bufferView":1,
		"max":[1.0,
		0.9995750784873962,
		0.9995750784873962],
		"type":"VEC3",
		"count":292,
		"componentType":5126,
		"byteOffset":12,
		"min":[-1.0,
		-0.9995750784873962,
		-0.9995750784873962]
	},
	{
		"bufferView":1,
		"max":[1.0,
		6.0],
		"type":"VEC2",
		"count":292,
		"componentType":5126,
		"byteOffset":24,
		"min":[0.0,
		0.0]
	},
	{
		"bufferView":2,
		"max":[43],
		"type":"SCALAR",
		"count":96,
		"componentType":5123,
		"byteOffset":0,
		"min":[0]
	},
	{
		"bufferView":3,
		"max":[1003.1770629882813,
		0.0,
		4.289185523986816],
		"type":"VEC3",
		"count":44,
		"componentType":5126,
		"byteOffset":0,
		"min":[-4.194917678833008,
		0.0,
		-104.41759490966797]
	},
	{
		"bufferView":3,
		"max":[0.0,
		1.0,
		0.0],
		"type":"VEC3",
		"count":44,
		"componentType":5126,
		"byteOffset":12,
		"min":[0.0,
		-1.0,
		0.0]
	},
	{
		"bufferView":3,
		"max":[1.0,
		1.0],
		"type":"VEC2",
		"count":44,
		"componentType":5126,
		"byteOffset":24,
		"min":[0.0,
		0.0]
	},
	{
		"bufferView":4,
		"max":[3],
		"type":"SCALAR",
		"count":6,
		"componentType":5123,
		"byteOffset":0,
		"min":[0]
	},
	{
		"bufferView":5,
		"max":[5.0,
		0.0,
		1.0],
		"type":"VEC3",
		"count":4,
		"componentType":5126,
		"byteOffset":0,
		"min":[-5.0,
		0.0,
		-1.0]
	},
	{
		"bufferView":5,
		"max":[0.0,
		-1.0,
		0.0],
		"type":"VEC3",
		"count":4,
		"componentType":5126,
		"byteOffset":12,
		"min":[0.0,
		-1.0,
		0.0]
	},
	{
		"bufferView":5,
		"max":[1.0,
		0.19999998807907105],
		"type":"VEC2",
		"count":4,
		"componentType":5126,
		"byteOffset":24,
		"min":[0.0,
		0.0]
	},
	{
		"bufferView":6,
		"max":[3],
		"type":"SCALAR",
		"count":6,
		"componentType":5123,
		"byteOffset":0,
		"min":[0]
	},
	{
		"bufferView":7,
		"max":[5.0,
		0.0,
		1.0],
		"type":"VEC3",
		"count":4,
		"componentType":5126,
		"byteOffset":0,
		"min":[-5.0,
		0.0,
		-1.0]
	},
	{
		"bufferView":7,
		"max":[0.0,
		-1.0,
		0.0],
		"type":"VEC3",
		"count":4,
		"componentType":5126,
		"byteOffset":12,
		"min":[0.0,
		-1.0,
		0.0]
	},
	{
		"bufferView":7,
		"max":[1.0,
		0.19999998807907105],
		"type":"VEC2",
		"count":4,
		"componentType":5126,
		"byteOffset":24,
		"min":[0.0,
		0.0]
	},
	{
		"bufferView":8,
		"max":[39],
		"type":"SCALAR",
		"count":96,
		"componentType":5123,
		"byteOffset":0,
		"min":[0]
	},
	{
		"bufferView":9,
		"max":[508.2699279785156,
		0.0,
		9030.021484375],
		"type":"VEC3",
		"count":40,
		"componentType":5126,
		"byteOffset":0,
		"min":[493.90740966796877,
		0.0,
		-1057.0233154296876]
	},
	{
		"bufferView":9,
		"max":[0.0,
		1.0,
		0.0],
		"type":"VEC3",
		"count":40,
		"componentType":5126,
		"byteOffset":12,
		"min":[0.0,
		-1.0,
		0.0]
	},
	{
		"bufferView":9,
		"max":[1.0,
		1.0],
		"type":"VEC2",
		"count":40,
		"componentType":5126,
		"byteOffset":24,
		"min":[0.0,
		0.0]
	},
	{
		"bufferView":10,
		"max":[3],
		"type":"SCALAR",
		"count":6,
		"componentType":5123,
		"byteOffset":0,
		"min":[0]
	},
	{
		"bufferView":11,
		"max":[5.0,
		0.0,
		1.0],
		"type":"VEC3",
		"count":4,
		"componentType":5126,
		"byteOffset":0,
		"min":[-5.0,
		0.0,
		-1.0]
	},
	{
		"bufferView":11,
		"max":[0.0,
		-1.0,
		0.0],
		"type":"VEC3",
		"count":4,
		"componentType":5126,
		"byteOffset":12,
		"min":[0.0,
		-1.0,
		0.0]
	},
	{
		"bufferView":11,
		"max":[1.0,
		0.19999998807907105],
		"type":"VEC2",
		"count":4,
		"componentType":5126,
		"byteOffset":24,
		"min":[0.0,
		0.0]
	},
	{
		"bufferView":12,
		"max":[3],
		"type":"SCALAR",
		"count":6,
		"componentType":5123,
		"byteOffset":0,
		"min":[0]
	},
	{
		"bufferView":13,
		"max":[5.0,
		0.0,
		1.0],
		"type":"VEC3",
		"count":4,
		"componentType":5126,
		"byteOffset":0,
		"min":[-5.0,
		0.0,
		-1.0]
	},
	{
		"bufferView":13,
		"max":[0.0,
		-1.0,
		0.0],
		"type":"VEC3",
		"count":4,
		"componentType":5126,
		"byteOffset":12,
		"min":[0.0,
		-1.0,
		0.0]
	},
	{
		"bufferView":13,
		"max":[1.0,
		0.19999998807907105],
		"type":"VEC2",
		"count":4,
		"componentType":5126,
		"byteOffset":24,
		"min":[0.0,
		0.0]
	},
	{
		"bufferView":14,
		"max":[39],
		"type":"SCALAR",
		"count":96,
		"componentType":5123,
		"byteOffset":0,
		"min":[0]
	},
	{
		"bufferView":15,
		"max":[508.2699279785156,
		0.0,
		9030.021484375],
		"type":"VEC3",
		"count":40,
		"componentType":5126,
		"byteOffset":0,
		"min":[493.90740966796877,
		0.0,
		-1057.0233154296876]
	},
	{
		"bufferView":15,
		"max":[0.0,
		1.0,
		0.0],
		"type":"VEC3",
		"count":40,
		"componentType":5126,
		"byteOffset":12,
		"min":[0.0,
		-1.0,
		0.0]
	},
	{
		"bufferView":15,
		"max":[1.0,
		1.0],
		"type":"VEC2",
		"count":40,
		"componentType":5126,
		"byteOffset":24,
		"min":[0.0,
		0.0]
	},
	{
		"bufferView":16,
		"max":[3],
		"type":"SCALAR",
		"count":6,
		"componentType":5123,
		"byteOffset":0,
		"min":[0]
	},
	{
		"bufferView":17,
		"max":[5.0,
		0.0,
		1.0],
		"type":"VEC3",
		"count":4,
		"componentType":5126,
		"byteOffset":0,
		"min":[-5.0,
		0.0,
		-1.0]
	},
	{
		"bufferView":17,
		"max":[0.0,
		-1.0,
		0.0],
		"type":"VEC3",
		"count":4,
		"componentType":5126,
		"byteOffset":12,
		"min":[0.0,
		-1.0,
		0.0]
	},
	{
		"bufferView":17,
		"max":[1.0,
		0.19999998807907105],
		"type":"VEC2",
		"count":4,
		"componentType":5126,
		"byteOffset":24,
		"min":[0.0,
		0.0]
	},
	{
		"bufferView":18,
		"max":[3],
		"type":"SCALAR",
		"count":6,
		"componentType":5123,
		"byteOffset":0,
		"min":[0]
	},
	{
		"bufferView":19,
		"max":[5.0,
		0.0,
		1.0],
		"type":"VEC3",
		"count":4,
		"componentType":5126,
		"byteOffset":0,
		"min":[-5.0,
		0.0,
		-1.0]
	},
	{
		"bufferView":19,
		"max":[0.0,
		-1.0,
		0.0],
		"type":"VEC3",
		"count":4,
		"componentType":5126,
		"byteOffset":12,
		"min":[0.0,
		-1.0,
		0.0]
	},
	{
		"bufferView":19,
		"max":[1.0,
		0.19999998807907105],
		"type":"VEC2",
		"count":4,
		"componentType":5126,
		"byteOffset":24,
		"min":[0.0,
		0.0]
	},
	{
		"bufferView":20,
		"max":[43],
		"type":"SCALAR",
		"count":96,
		"componentType":5123,
		"byteOffset":0,
		"min":[0]
	},
	{
		"bufferView":21,
		"max":[1003.1770629882813,
		0.0,
		4.289185523986816],
		"type":"VEC3",
		"count":44,
		"componentType":5126,
		"byteOffset":0,
		"min":[-4.194917678833008,
		0.0,
		-104.41759490966797]
	},
	{
		"bufferView":21,
		"max":[0.0,
		1.0,
		0.0],
		"type":"VEC3",
		"count":44,
		"componentType":5126,
		"byteOffset":12,
		"min":[0.0,
		-1.0,
		0.0]
	},
	{
		"bufferView":21,
		"max":[1.0,
		1.0],
		"type":"VEC2",
		"count":44,
		"componentType":5126,
		"byteOffset":24,
		"min":[0.0,
		0.0]
	},
	{
		"bufferView":22,
		"max":[3],
		"type":"SCALAR",
		"count":6,
		"componentType":5123,
		"byteOffset":0,
		"min":[0]
	},
	{
		"bufferView":23,
		"max":[5.0,
		0.0,
		1.0],
		"type":"VEC3",
		"count":4,
		"componentType":5126,
		"byteOffset":0,
		"min":[-5.0,
		0.0,
		-1.0]
	},
	{
		"bufferView":23,
		"max":[0.0,
		-1.0,
		0.0],
		"type":"VEC3",
		"count":4,
		"componentType":5126,
		"byteOffset":12,
		"min":[0.0,
		-1.0,
		0.0]
	},
	{
		"bufferView":23,
		"max":[1.0,
		0.19999998807907105],
		"type":"VEC2",
		"count":4,
		"componentType":5126,
		"byteOffset":24,
		"min":[0.0,
		0.0]
	},
	{
		"bufferView":24,
		"max":[3],
		"type":"SCALAR",
		"count":6,
		"componentType":5123,
		"byteOffset":0,
		"min":[0]
	},
	{
		"bufferView":25,
		"max":[5.0,
		0.0,
		1.0],
		"type":"VEC3",
		"count":4,
		"componentType":5126,
		"byteOffset":0,
		"min":[-5.0,
		0.0,
		-1.0]
	},
	{
		"bufferView":25,
		"max":[0.0,
		-1.0,
		0.0],
		"type":"VEC3",
		"count":4,
		"componentType":5126,
		"byteOffset":12,
		"min":[0.0,
		-1.0,
		0.0]
	},
	{
		"bufferView":25,
		"max":[1.0,
		0.19999998807907105],
		"type":"VEC2",
		"count":4,
		"componentType":5126,
		"byteOffset":24,
		"min":[0.0,
		0.0]
	}],
	"samplers":[{
		"magFilter":9729,
		"minFilter":9729,
		"wrapS":10497,
		"wrapT":10497
	}],
	"bufferViews":[{
		"buffer":0,
		"byteOffset":0,
		"byteLength":1728,
		"target":34963
	},
	{
		"buffer":0,
		"byteOffset":1728,
		"byteLength":9344,
		"target":34962,
		"byteStride":32
	},
	{
		"buffer":1,
		"byteOffset":0,
		"byteLength":192,
		"target":34963
	},
	{
		"buffer":1,
		"byteOffset":192,
		"byteLength":1408,
		"target":34962,
		"byteStride":32
	},
	{
		"buffer":2,
		"byteOffset":0,
		"byteLength":12,
		"target":34963
	},
	{
		"buffer":2,
		"byteOffset":12,
		"byteLength":128,
		"target":34962,
		"byteStride":32
	},
	{
		"buffer":3,
		"byteOffset":0,
		"byteLength":12,
		"target":34963
	},
	{
		"buffer":3,
		"byteOffset":12,
		"byteLength":128,
		"target":34962,
		"byteStride":32
	},
	{
		"buffer":4,
		"byteOffset":0,
		"byteLength":192,
		"target":34963
	},
	{
		"buffer":4,
		"byteOffset":192,
		"byteLength":1280,
		"target":34962,
		"byteStride":32
	},
	{
		"buffer":5,
		"byteOffset":0,
		"byteLength":12,
		"target":34963
	},
	{
		"buffer":5,
		"byteOffset":12,
		"byteLength":128,
		"target":34962,
		"byteStride":32
	},
	{
		"buffer":6,
		"byteOffset":0,
		"byteLength":12,
		"target":34963
	},
	{
		"buffer":6,
		"byteOffset":12,
		"byteLength":128,
		"target":34962,
		"byteStride":32
	},
	{
		"buffer":7,
		"byteOffset":0,
		"byteLength":192,
		"target":34963
	},
	{
		"buffer":7,
		"byteOffset":192,
		"byteLength":1280,
		"target":34962,
		"byteStride":32
	},
	{
		"buffer":8,
		"byteOffset":0,
		"byteLength":12,
		"target":34963
	},
	{
		"buffer":8,
		"byteOffset":12,
		"byteLength":128,
		"target":34962,
		"byteStride":32
	},
	{
		"buffer":9,
		"byteOffset":0,
		"byteLength":12,
		"target":34963
	},
	{
		"buffer":9,
		"byteOffset":12,
		"byteLength":128,
		"target":34962,
		"byteStride":32
	},
	{
		"buffer":10,
		"byteOffset":0,
		"byteLength":192,
		"target":34963
	},
	{
		"buffer":10,
		"byteOffset":192,
		"byteLength":1408,
		"target":34962,
		"byteStride":32
	},
	{
		"buffer":11,
		"byteOffset":0,
		"byteLength":12,
		"target":34963
	},
	{
		"buffer":11,
		"byteOffset":12,
		"byteLength":128,
		"target":34962,
		"byteStride":32
	},
	{
		"buffer":12,
		"byteOffset":0,
		"byteLength":12,
		"target":34963
	},
	{
		"buffer":12,
		"byteOffset":12,
		"byteLength":128,
		"target":34962,
		"byteStride":32
	}],
	"textures":[{
		"sampler":0,
		"source":0
	}],
	"buffers":[{
		"uri":"data:application/octet-stream;base64,",
		"byteLength":11072
	},
	{
		"uri":"data:application/octet-stream;base64,",
		"byteLength":1600
	},
	{
		"uri":"data:application/octet-stream;base64,",
		"byteLength":140
	},
	{
		"uri":"data:application/octet-stream;base64,",
		"byteLength":140
	},
	{
		"uri":"data:application/octet-stream;base64,",
		"byteLength":1472
	},
	{
		"uri":"data:application/octet-stream;base64,",
		"byteLength":140
	},
	{
		"uri":"data:application/octet-stream;base64,",
		"byteLength":140
	},
	{
		"uri":"data:application/octet-stream;base64,",
		"byteLength":1472
	},
	{
		"uri":"data:application/octet-stream;base64,",
		"byteLength":140
	},
	{
		"uri":"data:application/octet-stream;base64,",
		"byteLength":140
	},
	{
		"uri":"data:application/octet-stream;base64,",
		"byteLength":1600
	},
	{
		"uri":"data:application/octet-stream;base64,",
		"byteLength":140
	},
	{
		"uri":"data:application/octet-stream;base64,",
		"byteLength":140
	}],
	"materials":[{
		"pbrMetallicRoughness":{
			"baseColorTexture":{
				"index":0
			},
			"baseColorFactor":[0.8,
			0.8,
			0.8,
			1.0],
			"metallicFactor":0.0,
			"roughnessFactor":0.5
		},
		"emissiveFactor":[0.0,
		0.0,
		0.0],
		"alphaMode":"OPAQUE",
		"doubleSided":false,
		"name":"材质.2"
	},
	{
		"pbrMetallicRoughness":{
			"baseColorFactor":[0.13999999999999997,
			0.4,
			0.29599999999999995,
			1.0],
			"metallicFactor":0.0,
			"roughnessFactor":0.5
		},
		"emissiveFactor":[0.1715,
		0.32917499999999996,
		0.35000000000000006],
		"alphaMode":"OPAQUE",
		"doubleSided":false,
		"name":"材质.1"
	}]
}