{
	"asset":{
		"version":"2.0",
		"generator":"Created using the official Cinema 4D glTF Exporter 1.000x284978"
	},
	"scenes":[{
		"nodes":[0,
		1,
		3,
		4,
		5,
		6,
		9]
	}],
	"nodes":[{
		"name":"圆柱体",
		"translation":[0.0,
		251.00894165039063,
		0.0],
		"rotation":[0.0,
		0.0,
		0.0,
		-1.0],
		"mesh":0,
		"scale":[1.0,
		1.0,
		1.0]
	},
	{
		"name":"晶格",
		"children":[2]
	},
	{
		"name":"立方体",
		"mesh":1
	},
	{
		"name":"立方体",
		"translation":[0.0,
		101.0379638671875,
		602.6718139648438],
		"rotation":[0.0,
		0.0,
		0.0,
		-1.0],
		"mesh":2,
		"scale":[1.0,
		1.0,
		1.0]
	},
	{
		"name":"立方体.1",
		"mesh":3
	},
	{
		"name":"管道.1",
		"translation":[-6.915299892425537,
		101.2402114868164,
		219.3637237548828],
		"rotation":[0.0,
		0.0,
		0.0,
		-1.0],
		"mesh":4,
		"scale":[1.0,
		1.0,
		1.0]
	},
	{
		"name":"空白",
		"translation":[-3.347397804260254,
		2.2801828384399416,
		-5.738396167755127],
		"rotation":[0.0,
		0.0,
		0.0,
		-1.0],
		"scale":[1.0,
		1.0,
		1.0],
		"children":[7,
		8]
	},
	{
		"name":"扫描.3",
		"translation":[-3.347397804260254,
		0.0,
		-5.738396167755127],
		"rotation":[0.0,
		0.0,
		0.0,
		-1.0],
		"mesh":5,
		"scale":[1.0,
		1.0,
		1.0]
	},
	{
		"name":"扫描",
		"translation":[3.347397804260254,
		0.0,
		5.738396167755127],
		"rotation":[0.0,
		0.0,
		0.0,
		-1.0],
		"mesh":6,
		"scale":[1.0,
		1.0,
		1.0]
	},
	{
		"name":"空白.1",
		"translation":[2.743147134780884,
		2.2801828384399416,
		-2.8691980838775636],
		"rotation":[0.0,
		0.0,
		0.0,
		-1.0],
		"scale":[1.0,
		1.0,
		1.0],
		"children":[10]
	},
	{
		"name":"扫描.1",
		"translation":[-2.743147134780884,
		0.0,
		2.8691980838775636],
		"rotation":[0.0,
		0.0,
		0.0,
		-1.0],
		"mesh":7,
		"scale":[1.0,
		1.0,
		1.0]
	}],
	"meshes":[{
		"name":"圆柱体",
		"primitives":[{
			"attributes":{
				"POSITION":1,
				"NORMAL":2,
				"TEXCOORD_0":3
			},
			"indices":0
		}]
	},
	{
		"name":"立方体",
		"primitives":[{
			"attributes":{
				"POSITION":5,
				"NORMAL":6,
				"TEXCOORD_0":7
			},
			"indices":4,
			"material":0
		}]
	},
	{
		"name":"立方体",
		"primitives":[{
			"attributes":{
				"POSITION":9,
				"NORMAL":10,
				"TEXCOORD_0":11
			},
			"indices":8,
			"material":1
		}]
	},
	{
		"name":"立方体.1",
		"primitives":[{
			"attributes":{
				"POSITION":13,
				"NORMAL":14,
				"TEXCOORD_0":15
			},
			"indices":12,
			"material":2
		}]
	},
	{
		"name":"管道.1",
		"primitives":[{
			"attributes":{
				"POSITION":17,
				"NORMAL":18,
				"TEXCOORD_0":19
			},
			"indices":16,
			"material":3
		}]
	},
	{
		"name":"扫描.3",
		"primitives":[{
			"attributes":{
				"POSITION":21,
				"NORMAL":22,
				"TEXCOORD_0":23
			},
			"indices":20,
			"material":4
		}]
	},
	{
		"name":"扫描",
		"primitives":[{
			"attributes":{
				"POSITION":25,
				"NORMAL":26,
				"TEXCOORD_0":27
			},
			"indices":24,
			"material":4
		}]
	},
	{
		"name":"扫描.1",
		"primitives":[{
			"attributes":{
				"POSITION":29,
				"NORMAL":30,
				"TEXCOORD_0":31
			},
			"indices":28,
			"material":4
		}]
	}],
	"images":[{
		"uri":"data:image/jpeg;base64,"
	}],
	"accessors":[{
		"bufferView":0,
		"type":"SCALAR",
		"byteOffset":0,
		"componentType":5123,
		"count":480,
		"min":[0],
		"max":[118]
	},
	{
		"bufferView":1,
		"type":"VEC3",
		"byteOffset":0,
		"componentType":5126,
		"count":119,
		"min":[-100.0,
		-50.0,
		-50.0],
		"max":[100.0,
		50.0,
		50.0]
	},
	{
		"bufferView":1,
		"type":"VEC3",
		"byteOffset":12,
		"componentType":5126,
		"count":119,
		"min":[-1.0,
		-1.0,
		-1.0],
		"max":[1.0,
		1.0,
		1.0]
	},
	{
		"bufferView":1,
		"type":"VEC2",
		"byteOffset":24,
		"componentType":5126,
		"count":119,
		"min":[0.0,
		0.0],
		"max":[1.0,
		1.0]
	},
	{
		"bufferView":2,
		"type":"SCALAR",
		"byteOffset":0,
		"componentType":5123,
		"count":408,
		"min":[0],
		"max":[199]
	},
	{
		"bufferView":3,
		"type":"VEC3",
		"byteOffset":0,
		"componentType":5126,
		"count":200,
		"min":[-101.0,
		0.03796112909913063,
		501.6718444824219],
		"max":[101.0,
		202.0379638671875,
		703.6718139648438]
	},
	{
		"bufferView":3,
		"type":"VEC3",
		"byteOffset":12,
		"componentType":5126,
		"count":200,
		"min":[-1.0,
		-1.0,
		-1.0],
		"max":[1.0,
		1.0,
		1.0]
	},
	{
		"bufferView":3,
		"type":"VEC2",
		"byteOffset":24,
		"componentType":5126,
		"count":200,
		"min":[0.0,
		0.0],
		"max":[1.0,
		1.0]
	},
	{
		"bufferView":4,
		"type":"SCALAR",
		"byteOffset":0,
		"componentType":5123,
		"count":36,
		"min":[0],
		"max":[23]
	},
	{
		"bufferView":5,
		"type":"VEC3",
		"byteOffset":0,
		"componentType":5126,
		"count":24,
		"min":[-100.0,
		-100.0,
		-100.0],
		"max":[100.0,
		100.0,
		100.0]
	},
	{
		"bufferView":5,
		"type":"VEC3",
		"byteOffset":12,
		"componentType":5126,
		"count":24,
		"min":[-1.0,
		-1.0,
		-1.0],
		"max":[1.0,
		1.0,
		1.0]
	},
	{
		"bufferView":5,
		"type":"VEC2",
		"byteOffset":24,
		"componentType":5126,
		"count":24,
		"min":[0.0,
		0.0],
		"max":[1.0,
		1.0]
	},
	{
		"bufferView":6,
		"type":"SCALAR",
		"byteOffset":0,
		"componentType":5123,
		"count":36,
		"min":[0],
		"max":[23]
	},
	{
		"bufferView":7,
		"type":"VEC3",
		"byteOffset":0,
		"componentType":5126,
		"count":24,
		"min":[-2382.794921875,
		0.0,
		-3051.885009765625],
		"max":[2382.794921875,
		0.0,
		3051.885009765625]
	},
	{
		"bufferView":7,
		"type":"VEC3",
		"byteOffset":12,
		"componentType":5126,
		"count":24,
		"min":[0.0,
		-1.0,
		0.0],
		"max":[0.0,
		1.0,
		0.0]
	},
	{
		"bufferView":7,
		"type":"VEC2",
		"byteOffset":24,
		"componentType":5126,
		"count":24,
		"min":[0.0,
		0.0],
		"max":[1.0,
		1.0]
	},
	{
		"bufferView":8,
		"type":"SCALAR",
		"byteOffset":0,
		"componentType":5123,
		"count":9792,
		"min":[0],
		"max":[1797]
	},
	{
		"bufferView":9,
		"type":"VEC3",
		"byteOffset":0,
		"componentType":5126,
		"count":1798,
		"min":[-278.7151184082031,
		-54.1334228515625,
		-54.1334228515625],
		"max":[278.7151184082031,
		54.1334228515625,
		54.1334228515625]
	},
	{
		"bufferView":9,
		"type":"VEC3",
		"byteOffset":12,
		"componentType":5126,
		"count":1798,
		"min":[-1.0,
		-1.0,
		-1.0],
		"max":[1.0,
		1.0,
		1.0]
	},
	{
		"bufferView":9,
		"type":"VEC2",
		"byteOffset":24,
		"componentType":5126,
		"count":1798,
		"min":[0.0,
		0.0],
		"max":[1.0,
		20.0]
	},
	{
		"bufferView":10,
		"type":"SCALAR",
		"byteOffset":0,
		"componentType":5123,
		"count":9696,
		"min":[0],
		"max":[3285]
	},
	{
		"bufferView":11,
		"type":"VEC3",
		"byteOffset":0,
		"componentType":5126,
		"count":3286,
		"min":[-4.194917678833008,
		0.0,
		-104.12198638916016],
		"max":[1003.1315307617188,
		0.0,
		4.289185523986816]
	},
	{
		"bufferView":11,
		"type":"VEC3",
		"byteOffset":12,
		"componentType":5126,
		"count":3286,
		"min":[0.0,
		-1.0,
		0.0],
		"max":[0.0,
		1.0,
		0.0]
	},
	{
		"bufferView":11,
		"type":"VEC2",
		"byteOffset":24,
		"componentType":5126,
		"count":3286,
		"min":[0.0,
		0.0],
		"max":[1.0,
		1.0]
	},
	{
		"bufferView":12,
		"type":"SCALAR",
		"byteOffset":0,
		"componentType":5123,
		"count":9696,
		"min":[0],
		"max":[3285]
	},
	{
		"bufferView":13,
		"type":"VEC3",
		"byteOffset":0,
		"componentType":5126,
		"count":3286,
		"min":[-4.194917678833008,
		0.0,
		-104.12198638916016],
		"max":[1003.1315307617188,
		0.0,
		4.289185523986816]
	},
	{
		"bufferView":13,
		"type":"VEC3",
		"byteOffset":12,
		"componentType":5126,
		"count":3286,
		"min":[0.0,
		-1.0,
		0.0],
		"max":[0.0,
		1.0,
		0.0]
	},
	{
		"bufferView":13,
		"type":"VEC2",
		"byteOffset":24,
		"componentType":5126,
		"count":3286,
		"min":[0.0,
		0.0],
		"max":[1.0,
		1.0]
	},
	{
		"bufferView":14,
		"type":"SCALAR",
		"byteOffset":0,
		"componentType":5123,
		"count":9696,
		"min":[0],
		"max":[2963]
	},
	{
		"bufferView":15,
		"type":"VEC3",
		"byteOffset":0,
		"componentType":5126,
		"count":2964,
		"min":[493.90740966796877,
		0.0,
		-1056.230224609375],
		"max":[508.26953125,
		0.0,
		9030.021484375]
	},
	{
		"bufferView":15,
		"type":"VEC3",
		"byteOffset":12,
		"componentType":5126,
		"count":2964,
		"min":[0.0,
		-1.0,
		0.0],
		"max":[0.0,
		1.0,
		0.0]
	},
	{
		"bufferView":15,
		"type":"VEC2",
		"byteOffset":24,
		"componentType":5126,
		"count":2964,
		"min":[0.0,
		0.0],
		"max":[1.0,
		1.0]
	}],
	"samplers":[{
		"magFilter":9729,
		"minFilter":9729,
		"wrapS":10497,
		"wrapT":10497
	}],
	"bufferViews":[{
		"buffer":0,
		"byteOffset":0,
		"byteLength":960,
		"target":34963
	},
	{
		"buffer":0,
		"byteOffset":960,
		"byteLength":3808,
		"target":34962,
		"byteStride":32
	},
	{
		"buffer":1,
		"byteOffset":0,
		"byteLength":816,
		"target":34963
	},
	{
		"buffer":1,
		"byteOffset":816,
		"byteLength":6400,
		"target":34962,
		"byteStride":32
	},
	{
		"buffer":2,
		"byteOffset":0,
		"byteLength":72,
		"target":34963
	},
	{
		"buffer":2,
		"byteOffset":72,
		"byteLength":768,
		"target":34962,
		"byteStride":32
	},
	{
		"buffer":3,
		"byteOffset":0,
		"byteLength":72,
		"target":34963
	},
	{
		"buffer":3,
		"byteOffset":72,
		"byteLength":768,
		"target":34962,
		"byteStride":32
	},
	{
		"buffer":4,
		"byteOffset":0,
		"byteLength":19584,
		"target":34963
	},
	{
		"buffer":4,
		"byteOffset":19584,
		"byteLength":57536,
		"target":34962,
		"byteStride":32
	},
	{
		"buffer":5,
		"byteOffset":0,
		"byteLength":19392,
		"target":34963
	},
	{
		"buffer":5,
		"byteOffset":19392,
		"byteLength":105152,
		"target":34962,
		"byteStride":32
	},
	{
		"buffer":6,
		"byteOffset":0,
		"byteLength":19392,
		"target":34963
	},
	{
		"buffer":6,
		"byteOffset":19392,
		"byteLength":105152,
		"target":34962,
		"byteStride":32
	},
	{
		"buffer":7,
		"byteOffset":0,
		"byteLength":19392,
		"target":34963
	},
	{
		"buffer":7,
		"byteOffset":19392,
		"byteLength":94848,
		"target":34962,
		"byteStride":32
	}],
	"textures":[{
		"sampler":0,
		"source":0
	}],
	"buffers":[{
		"uri":"data:application/octet-stream;base64,",
		"byteLength":4768
	},
	{
		"uri":"data:application/octet-stream;base64,",
		"byteLength":7216
	},
	{
		"uri":"data:application/octet-stream;base64,",
		"byteLength":840
	},
	{
		"uri":"data:application/octet-stream;base64,",
		"byteLength":840
	},
	{
		"uri":"data:application/octet-stream;base64,",
		"byteLength":77120
	},
	{
		"uri":"data:application/octet-stream;base64,",
		"byteLength":124544
	},
	{
		"uri":"data:application/octet-stream;base64,",
		"byteLength":124544
	},
	{
		"uri":"data:application/octet-stream;base64,",
		"byteLength":114240
	}],
	"materials":[{
		"pbrMetallicRoughness":{
			"baseColorFactor":[0.352,
			0.7776000000000001,
			0.8,
			1.0],
			"metallicFactor":0.0,
			"roughnessFactor":0.5
		},
		"emissiveFactor":[0.48,
		0.9740000000000001,
		1.0],
		"alphaMode":"OPAQUE",
		"doubleSided":false,
		"name":"材质.5"
	},
	{
		"pbrMetallicRoughness":{
			"baseColorFactor":[0.49280000000000009,
			0.8606400000000001,
			0.88,
			0.41000000000000005],
			"metallicFactor":1.0,
			"roughnessFactor":1.0
		},
		"emissiveFactor":[0.0,
		0.0,
		0.0],
		"alphaMode":"BLEND",
		"doubleSided":false,
		"name":"材质.3"
	},
	{
		"pbrMetallicRoughness":{
			"baseColorFactor":[0.8,
			0.8,
			0.8,
			1.0],
			"metallicFactor":0.0,
			"roughnessFactor":0.5
		},
		"emissiveFactor":[0.0,
		0.0,
		0.0],
		"alphaMode":"OPAQUE",
		"doubleSided":false,
		"name":"材质.4"
	},
	{
		"pbrMetallicRoughness":{
			"baseColorTexture":{
				"index":0
			},
			"baseColorFactor":[0.8,
			0.8,
			0.8,
			1.0],
			"metallicFactor":0.0,
			"roughnessFactor":0.5
		},
		"emissiveFactor":[0.0,
		0.0,
		0.0],
		"alphaMode":"OPAQUE",
		"doubleSided":false,
		"name":"材质.2"
	},
	{
		"pbrMetallicRoughness":{
			"baseColorFactor":[0.13999999999999997,
			0.4,
			0.29599999999999995,
			1.0],
			"metallicFactor":0.0,
			"roughnessFactor":0.5
		},
		"emissiveFactor":[0.1715,
		0.32917499999999996,
		0.35000000000000006],
		"alphaMode":"OPAQUE",
		"doubleSided":false,
		"name":"材质.1"
	}]
}