{
	"asset":{
		"version":"2.0",
		"generator":"Created using the official Cinema 4D glTF Exporter 1.000x284978"
	},
	"scenes":[{
		"nodes":[0,
		3,
		4,
		6,
		7,
		8,
		9,
		12]
	}],
	"nodes":[{
		"name":"扫描.3",
		"translation":[-0.06694795191287995,
		0.022801829501986505,
		-2.0176095962524416],
		"rotation":[0.0,
		0.0,
		0.0,
		-1.0],
		"mesh":0,
		"scale":[1.0,
		1.0,
		1.0],
		"children":[1,
		2]
	},
	{
		"name":"封顶 1",
		"translation":[0.0,
		0.0,
		0.0],
		"rotation":[0.39036834239959719,
		-2.39031672011204e-17,
		-0.9206587672233582,
		5.637409251605275e-17],
		"mesh":1,
		"scale":[1.0,
		1.0,
		1.0]
	},
	{
		"name":"封顶 2",
		"translation":[10.021315574645996,
		0.0,
		-0.990426242351532],
		"rotation":[0.7071067690849304,
		-4.329780301713277e-17,
		-0.7071067690849304,
		4.329780301713277e-17],
		"mesh":2,
		"scale":[1.0,
		1.0,
		1.0]
	},
	{
		"name":"圆柱体",
		"translation":[0.0,
		2.51008939743042,
		0.0],
		"rotation":[0.0,
		0.0,
		0.0,
		-1.0],
		"mesh":3,
		"scale":[1.0,
		1.0,
		1.0]
	},
	{
		"name":"晶格",
		"children":[5]
	},
	{
		"name":"立方体",
		"mesh":4
	},
	{
		"name":"立方体",
		"translation":[0.0,
		1.0103795528411866,
		6.026718616485596],
		"rotation":[0.0,
		0.0,
		0.0,
		-1.0],
		"mesh":5,
		"scale":[1.0,
		1.0,
		1.0]
	},
	{
		"name":"立方体.1",
		"mesh":6
	},
	{
		"name":"管道.1",
		"translation":[-0.06915299594402313,
		1.0124021768569947,
		2.1936371326446535],
		"rotation":[0.0,
		0.0,
		0.0,
		-1.0],
		"mesh":7,
		"scale":[1.0,
		1.0,
		1.0]
	},
	{
		"name":"空白",
		"translation":[-0.03347397595643997,
		0.022801829501986505,
		-0.05738396197557449],
		"rotation":[0.0,
		0.0,
		0.0,
		-1.0],
		"scale":[1.0,
		1.0,
		1.0],
		"children":[10,
		11]
	},
	{
		"name":"扫描.3",
		"translation":[-0.03347397595643997,
		0.0,
		-0.05738396197557449],
		"rotation":[0.0,
		0.0,
		0.0,
		-1.0],
		"mesh":8,
		"scale":[1.0,
		1.0,
		1.0]
	},
	{
		"name":"扫描",
		"translation":[0.03347397595643997,
		0.0,
		0.05738396197557449],
		"rotation":[0.0,
		0.0,
		0.0,
		-1.0],
		"mesh":9,
		"scale":[1.0,
		1.0,
		1.0]
	},
	{
		"name":"空白.1",
		"translation":[0.027431469410657884,
		0.022801829501986505,
		-0.028691980987787248],
		"rotation":[0.0,
		0.0,
		0.0,
		-1.0],
		"scale":[1.0,
		1.0,
		1.0],
		"children":[13]
	},
	{
		"name":"扫描.1",
		"translation":[-0.027431469410657884,
		0.0,
		0.028691980987787248],
		"rotation":[0.0,
		0.0,
		0.0,
		-1.0],
		"mesh":10,
		"scale":[1.0,
		1.0,
		1.0]
	}],
	"meshes":[{
		"name":"扫描.3",
		"primitives":[{
			"attributes":{
				"POSITION":1,
				"NORMAL":2,
				"TEXCOORD_0":3
			},
			"indices":0,
			"material":0
		}]
	},
	{
		"name":"封顶 1",
		"primitives":[{
			"attributes":{
				"POSITION":5,
				"NORMAL":6,
				"TEXCOORD_0":7
			},
			"indices":4,
			"material":0
		}]
	},
	{
		"name":"封顶 2",
		"primitives":[{
			"attributes":{
				"POSITION":9,
				"NORMAL":10,
				"TEXCOORD_0":11
			},
			"indices":8,
			"material":0
		}]
	},
	{
		"name":"圆柱体",
		"primitives":[{
			"attributes":{
				"POSITION":13,
				"NORMAL":14,
				"TEXCOORD_0":15
			},
			"indices":12
		}]
	},
	{
		"name":"立方体",
		"primitives":[{
			"attributes":{
				"POSITION":17,
				"NORMAL":18,
				"TEXCOORD_0":19
			},
			"indices":16,
			"material":1
		}]
	},
	{
		"name":"立方体",
		"primitives":[{
			"attributes":{
				"POSITION":21,
				"NORMAL":22,
				"TEXCOORD_0":23
			},
			"indices":20,
			"material":2
		}]
	},
	{
		"name":"立方体.1",
		"primitives":[{
			"attributes":{
				"POSITION":25,
				"NORMAL":26,
				"TEXCOORD_0":27
			},
			"indices":24,
			"material":3
		}]
	},
	{
		"name":"管道.1",
		"primitives":[{
			"attributes":{
				"POSITION":29,
				"NORMAL":30,
				"TEXCOORD_0":31
			},
			"indices":28,
			"material":4
		}]
	},
	{
		"name":"扫描.3",
		"primitives":[{
			"attributes":{
				"POSITION":33,
				"NORMAL":34,
				"TEXCOORD_0":35
			},
			"indices":32,
			"material":0
		}]
	},
	{
		"name":"扫描",
		"primitives":[{
			"attributes":{
				"POSITION":37,
				"NORMAL":38,
				"TEXCOORD_0":39
			},
			"indices":36,
			"material":0
		}]
	},
	{
		"name":"扫描.1",
		"primitives":[{
			"attributes":{
				"POSITION":41,
				"NORMAL":42,
				"TEXCOORD_0":43
			},
			"indices":40,
			"material":0
		}]
	}],
	"images":[{
		"uri":"data:image/jpeg;base64,"
	}],
	"accessors":[{
		"bufferView":0,
		"type":"SCALAR",
		"byteOffset":0,
		"componentType":5123,
		"count":9696,
		"min":[0],
		"max":[3285]
	},
	{
		"bufferView":1,
		"type":"VEC3",
		"byteOffset":0,
		"componentType":5126,
		"count":3286,
		"min":[-0.04194917529821396,
		0.0,
		-1.0412198305130005],
		"max":[10.031315803527832,
		0.0,
		0.04289185628294945]
	},
	{
		"bufferView":1,
		"type":"VEC3",
		"byteOffset":12,
		"componentType":5126,
		"count":3286,
		"min":[0.0,
		-1.0,
		0.0],
		"max":[0.0,
		1.0,
		0.0]
	},
	{
		"bufferView":1,
		"type":"VEC2",
		"byteOffset":24,
		"componentType":5126,
		"count":3286,
		"min":[0.0,
		0.0],
		"max":[1.0,
		1.0]
	},
	{
		"bufferView":2,
		"type":"SCALAR",
		"byteOffset":0,
		"componentType":5123,
		"count":6,
		"min":[0],
		"max":[3]
	},
	{
		"bufferView":3,
		"type":"VEC3",
		"byteOffset":0,
		"componentType":5126,
		"count":4,
		"min":[-0.05000000074505806,
		0.0,
		-0.009999999776482582],
		"max":[0.05000000074505806,
		0.0,
		0.009999999776482582]
	},
	{
		"bufferView":3,
		"type":"VEC3",
		"byteOffset":12,
		"componentType":5126,
		"count":4,
		"min":[0.0,
		-1.0,
		0.0],
		"max":[0.0,
		-1.0,
		0.0]
	},
	{
		"bufferView":3,
		"type":"VEC2",
		"byteOffset":24,
		"componentType":5126,
		"count":4,
		"min":[0.0,
		0.0],
		"max":[1.0,
		0.19999998807907105]
	},
	{
		"bufferView":4,
		"type":"SCALAR",
		"byteOffset":0,
		"componentType":5123,
		"count":6,
		"min":[0],
		"max":[3]
	},
	{
		"bufferView":5,
		"type":"VEC3",
		"byteOffset":0,
		"componentType":5126,
		"count":4,
		"min":[-0.05000000074505806,
		0.0,
		-0.009999999776482582],
		"max":[0.05000000074505806,
		0.0,
		0.009999999776482582]
	},
	{
		"bufferView":5,
		"type":"VEC3",
		"byteOffset":12,
		"componentType":5126,
		"count":4,
		"min":[0.0,
		-1.0,
		0.0],
		"max":[0.0,
		-1.0,
		0.0]
	},
	{
		"bufferView":5,
		"type":"VEC2",
		"byteOffset":24,
		"componentType":5126,
		"count":4,
		"min":[0.0,
		0.0],
		"max":[1.0,
		0.19999998807907105]
	},
	{
		"bufferView":6,
		"type":"SCALAR",
		"byteOffset":0,
		"componentType":5123,
		"count":480,
		"min":[0],
		"max":[118]
	},
	{
		"bufferView":7,
		"type":"VEC3",
		"byteOffset":0,
		"componentType":5126,
		"count":119,
		"min":[-1.0,
		-0.5,
		-0.5],
		"max":[1.0,
		0.5,
		0.5]
	},
	{
		"bufferView":7,
		"type":"VEC3",
		"byteOffset":12,
		"componentType":5126,
		"count":119,
		"min":[-1.0,
		-1.0,
		-1.0],
		"max":[1.0,
		1.0,
		1.0]
	},
	{
		"bufferView":7,
		"type":"VEC2",
		"byteOffset":24,
		"componentType":5126,
		"count":119,
		"min":[0.0,
		0.0],
		"max":[1.0,
		1.0]
	},
	{
		"bufferView":8,
		"type":"SCALAR",
		"byteOffset":0,
		"componentType":5123,
		"count":408,
		"min":[0],
		"max":[199]
	},
	{
		"bufferView":9,
		"type":"VEC3",
		"byteOffset":0,
		"componentType":5126,
		"count":200,
		"min":[-1.0099999904632569,
		0.0003796112723648548,
		5.01671838760376],
		"max":[1.0099999904632569,
		2.0203795433044435,
		7.036718368530273]
	},
	{
		"bufferView":9,
		"type":"VEC3",
		"byteOffset":12,
		"componentType":5126,
		"count":200,
		"min":[-1.0,
		-1.0,
		-1.0],
		"max":[1.0,
		1.0,
		1.0]
	},
	{
		"bufferView":9,
		"type":"VEC2",
		"byteOffset":24,
		"componentType":5126,
		"count":200,
		"min":[0.0,
		0.0],
		"max":[1.0,
		1.0]
	},
	{
		"bufferView":10,
		"type":"SCALAR",
		"byteOffset":0,
		"componentType":5123,
		"count":36,
		"min":[0],
		"max":[23]
	},
	{
		"bufferView":11,
		"type":"VEC3",
		"byteOffset":0,
		"componentType":5126,
		"count":24,
		"min":[-1.0,
		-1.0,
		-1.0],
		"max":[1.0,
		1.0,
		1.0]
	},
	{
		"bufferView":11,
		"type":"VEC3",
		"byteOffset":12,
		"componentType":5126,
		"count":24,
		"min":[-1.0,
		-1.0,
		-1.0],
		"max":[1.0,
		1.0,
		1.0]
	},
	{
		"bufferView":11,
		"type":"VEC2",
		"byteOffset":24,
		"componentType":5126,
		"count":24,
		"min":[0.0,
		0.0],
		"max":[1.0,
		1.0]
	},
	{
		"bufferView":12,
		"type":"SCALAR",
		"byteOffset":0,
		"componentType":5123,
		"count":36,
		"min":[0],
		"max":[23]
	},
	{
		"bufferView":13,
		"type":"VEC3",
		"byteOffset":0,
		"componentType":5126,
		"count":24,
		"min":[-23.82794761657715,
		0.0,
		-30.518850326538087],
		"max":[23.82794761657715,
		0.0,
		30.518850326538087]
	},
	{
		"bufferView":13,
		"type":"VEC3",
		"byteOffset":12,
		"componentType":5126,
		"count":24,
		"min":[0.0,
		-1.0,
		0.0],
		"max":[0.0,
		1.0,
		0.0]
	},
	{
		"bufferView":13,
		"type":"VEC2",
		"byteOffset":24,
		"componentType":5126,
		"count":24,
		"min":[0.0,
		0.0],
		"max":[1.0,
		1.0]
	},
	{
		"bufferView":14,
		"type":"SCALAR",
		"byteOffset":0,
		"componentType":5123,
		"count":9792,
		"min":[0],
		"max":[1797]
	},
	{
		"bufferView":15,
		"type":"VEC3",
		"byteOffset":0,
		"componentType":5126,
		"count":1798,
		"min":[-2.7871510982513429,
		-0.5413342118263245,
		-0.5413342118263245],
		"max":[2.7871510982513429,
		0.5413342118263245,
		0.5413342118263245]
	},
	{
		"bufferView":15,
		"type":"VEC3",
		"byteOffset":12,
		"componentType":5126,
		"count":1798,
		"min":[-1.0,
		-1.0,
		-1.0],
		"max":[1.0,
		1.0,
		1.0]
	},
	{
		"bufferView":15,
		"type":"VEC2",
		"byteOffset":24,
		"componentType":5126,
		"count":1798,
		"min":[0.0,
		0.0],
		"max":[1.0,
		20.0]
	},
	{
		"bufferView":16,
		"type":"SCALAR",
		"byteOffset":0,
		"componentType":5123,
		"count":9696,
		"min":[0],
		"max":[3285]
	},
	{
		"bufferView":17,
		"type":"VEC3",
		"byteOffset":0,
		"componentType":5126,
		"count":3286,
		"min":[-0.04194917529821396,
		0.0,
		-1.0412198305130005],
		"max":[10.031315803527832,
		0.0,
		0.04289185628294945]
	},
	{
		"bufferView":17,
		"type":"VEC3",
		"byteOffset":12,
		"componentType":5126,
		"count":3286,
		"min":[0.0,
		-1.0,
		0.0],
		"max":[0.0,
		1.0,
		0.0]
	},
	{
		"bufferView":17,
		"type":"VEC2",
		"byteOffset":24,
		"componentType":5126,
		"count":3286,
		"min":[0.0,
		0.0],
		"max":[1.0,
		1.0]
	},
	{
		"bufferView":18,
		"type":"SCALAR",
		"byteOffset":0,
		"componentType":5123,
		"count":9696,
		"min":[0],
		"max":[3285]
	},
	{
		"bufferView":19,
		"type":"VEC3",
		"byteOffset":0,
		"componentType":5126,
		"count":3286,
		"min":[-0.04194917529821396,
		0.0,
		-1.0412198305130005],
		"max":[10.031315803527832,
		0.0,
		0.04289185628294945]
	},
	{
		"bufferView":19,
		"type":"VEC3",
		"byteOffset":12,
		"componentType":5126,
		"count":3286,
		"min":[0.0,
		-1.0,
		0.0],
		"max":[0.0,
		1.0,
		0.0]
	},
	{
		"bufferView":19,
		"type":"VEC2",
		"byteOffset":24,
		"componentType":5126,
		"count":3286,
		"min":[0.0,
		0.0],
		"max":[1.0,
		1.0]
	},
	{
		"bufferView":20,
		"type":"SCALAR",
		"byteOffset":0,
		"componentType":5123,
		"count":9696,
		"min":[0],
		"max":[2963]
	},
	{
		"bufferView":21,
		"type":"VEC3",
		"byteOffset":0,
		"componentType":5126,
		"count":2964,
		"min":[4.9390740394592289,
		0.0,
		-10.562302589416504],
		"max":[5.082695007324219,
		0.0,
		90.30021667480469]
	},
	{
		"bufferView":21,
		"type":"VEC3",
		"byteOffset":12,
		"componentType":5126,
		"count":2964,
		"min":[0.0,
		-1.0,
		0.0],
		"max":[0.0,
		1.0,
		0.0]
	},
	{
		"bufferView":21,
		"type":"VEC2",
		"byteOffset":24,
		"componentType":5126,
		"count":2964,
		"min":[0.0,
		0.0],
		"max":[1.0,
		1.0]
	}],
	"samplers":[{
		"magFilter":9729,
		"minFilter":9729,
		"wrapS":10497,
		"wrapT":10497
	}],
	"bufferViews":[{
		"buffer":0,
		"byteOffset":0,
		"byteLength":19392,
		"target":34963
	},
	{
		"buffer":0,
		"byteOffset":19392,
		"byteLength":105152,
		"target":34962,
		"byteStride":32
	},
	{
		"buffer":1,
		"byteOffset":0,
		"byteLength":12,
		"target":34963
	},
	{
		"buffer":1,
		"byteOffset":12,
		"byteLength":128,
		"target":34962,
		"byteStride":32
	},
	{
		"buffer":2,
		"byteOffset":0,
		"byteLength":12,
		"target":34963
	},
	{
		"buffer":2,
		"byteOffset":12,
		"byteLength":128,
		"target":34962,
		"byteStride":32
	},
	{
		"buffer":3,
		"byteOffset":0,
		"byteLength":960,
		"target":34963
	},
	{
		"buffer":3,
		"byteOffset":960,
		"byteLength":3808,
		"target":34962,
		"byteStride":32
	},
	{
		"buffer":4,
		"byteOffset":0,
		"byteLength":816,
		"target":34963
	},
	{
		"buffer":4,
		"byteOffset":816,
		"byteLength":6400,
		"target":34962,
		"byteStride":32
	},
	{
		"buffer":5,
		"byteOffset":0,
		"byteLength":72,
		"target":34963
	},
	{
		"buffer":5,
		"byteOffset":72,
		"byteLength":768,
		"target":34962,
		"byteStride":32
	},
	{
		"buffer":6,
		"byteOffset":0,
		"byteLength":72,
		"target":34963
	},
	{
		"buffer":6,
		"byteOffset":72,
		"byteLength":768,
		"target":34962,
		"byteStride":32
	},
	{
		"buffer":7,
		"byteOffset":0,
		"byteLength":19584,
		"target":34963
	},
	{
		"buffer":7,
		"byteOffset":19584,
		"byteLength":57536,
		"target":34962,
		"byteStride":32
	},
	{
		"buffer":8,
		"byteOffset":0,
		"byteLength":19392,
		"target":34963
	},
	{
		"buffer":8,
		"byteOffset":19392,
		"byteLength":105152,
		"target":34962,
		"byteStride":32
	},
	{
		"buffer":9,
		"byteOffset":0,
		"byteLength":19392,
		"target":34963
	},
	{
		"buffer":9,
		"byteOffset":19392,
		"byteLength":105152,
		"target":34962,
		"byteStride":32
	},
	{
		"buffer":10,
		"byteOffset":0,
		"byteLength":19392,
		"target":34963
	},
	{
		"buffer":10,
		"byteOffset":19392,
		"byteLength":94848,
		"target":34962,
		"byteStride":32
	}],
	"textures":[{
		"sampler":0,
		"source":0
	}],
	"buffers":[{
		"uri":"data:application/octet-stream;base64,",
		"byteLength":124544
	},
	{
		"uri":"data:application/octet-stream;base64,",
		"byteLength":140
	},
	{
		"uri":"data:application/octet-stream;base64,",
		"byteLength":140
	},
	{
		"uri":"data:application/octet-stream;base64,",
		"byteLength":4768
	},
	{
		"uri":"data:application/octet-stream;base64,",
		"byteLength":7216
	},
	{
		"uri":"data:application/octet-stream;base64,",
		"byteLength":840
	},
	{
		"uri":"data:application/octet-stream;base64,",
		"byteLength":840
	},
	{
		"uri":"data:application/octet-stream;base64,",
		"byteLength":77120
	},
	{
		"uri":"data:application/octet-stream;base64,",
		"byteLength":124544
	},
	{
		"uri":"data:application/octet-stream;base64,",
		"byteLength":124544
	},
	{
		"uri":"data:application/octet-stream;base64,",
		"byteLength":114240
	}],
	"materials":[{
		"pbrMetallicRoughness":{
			"baseColorFactor":[0.13999999999999997,
			0.4,
			0.29599999999999995,
			1.0],
			"metallicFactor":0.0,
			"roughnessFactor":0.5
		},
		"emissiveFactor":[0.1715,
		0.32917499999999996,
		0.35000000000000006],
		"alphaMode":"OPAQUE",
		"doubleSided":false,
		"name":"材质.1"
	},
	{
		"pbrMetallicRoughness":{
			"baseColorFactor":[0.352,
			0.7776000000000001,
			0.8,
			1.0],
			"metallicFactor":0.0,
			"roughnessFactor":0.5
		},
		"emissiveFactor":[0.48,
		0.9740000000000001,
		1.0],
		"alphaMode":"OPAQUE",
		"doubleSided":false,
		"name":"材质.5"
	},
	{
		"pbrMetallicRoughness":{
			"baseColorFactor":[0.49280000000000009,
			0.8606400000000001,
			0.88,
			0.41000000000000005],
			"metallicFactor":1.0,
			"roughnessFactor":1.0
		},
		"emissiveFactor":[0.0,
		0.0,
		0.0],
		"alphaMode":"BLEND",
		"doubleSided":false,
		"name":"材质.3"
	},
	{
		"pbrMetallicRoughness":{
			"baseColorFactor":[0.8,
			0.8,
			0.8,
			1.0],
			"metallicFactor":0.0,
			"roughnessFactor":0.5
		},
		"emissiveFactor":[0.0,
		0.0,
		0.0],
		"alphaMode":"OPAQUE",
		"doubleSided":false,
		"name":"材质.4"
	},
	{
		"pbrMetallicRoughness":{
			"baseColorTexture":{
				"index":0
			},
			"baseColorFactor":[0.8,
			0.8,
			0.8,
			1.0],
			"metallicFactor":0.0,
			"roughnessFactor":0.5
		},
		"emissiveFactor":[0.0,
		0.0,
		0.0],
		"alphaMode":"OPAQUE",
		"doubleSided":false,
		"name":"材质.2"
	}]
}